<svg xmlns="http://www.w3.org/2000/svg" viewBox="0 0 512 512">
  <defs>
    <linearGradient id="grad1" x1="0%" y1="0%" x2="100%" y2="0%">
      <stop offset="0%" style="stop-color:#06b6d4;stop-opacity:1" />
      <stop offset="100%" style="stop-color:#3b82f6;stop-opacity:1" />
    </linearGradient>
  </defs>
  <path fill="url(#grad1)" d="M256,64C150,64,64,150,64,256s86,192,192,192,192-86,192-192S362,64,256,64Zm0,342A150,150,0,1,1,406,256,150.17,150.17,0,0,1,256,406Z"/>
  <path fill="#fff" d="M366.44,195.53l-68.92,127.3a16,16,0,0,1-27.1,1.52l-36.8-54.83a8,8,0,0,0-12.72-1L180.22,306a8,8,0,0,1-13.84-5.18l19.5-127.56a16,16,0,0,1,27.91-8l52.12,71.21a8,8,0,0,0,12.28.82l44.33-47.88a16,16,0,0,1,26.83,5.64l17.09,90.47Z"/>
</svg>
